<?xml version="1.0" encoding="UTF-8" standalone="no"?>
<!-- Created with Inkscape (http://www.inkscape.org/) -->

<svg
   xmlns:dc="http://purl.org/dc/elements/1.1/"
   xmlns:cc="http://creativecommons.org/ns#"
   xmlns:rdf="http://www.w3.org/1999/02/22-rdf-syntax-ns#"
   xmlns:svg="http://www.w3.org/2000/svg"
   xmlns="http://www.w3.org/2000/svg"
   xmlns:sodipodi="http://sodipodi.sourceforge.net/DTD/sodipodi-0.dtd"
   xmlns:inkscape="http://www.inkscape.org/namespaces/inkscape"
   width="768"
   height="1004"
   viewBox="0 0 203.2 265.64167"
   version="1.1"
   id="svg8"
   inkscape:version="0.92.2 5c3e80d, 2017-08-06"
   sodipodi:docname="LaunchImage768x1004.svg">
  <defs
     id="defs2">
    <clipPath
       clipPathUnits="userSpaceOnUse"
       id="clipPath24">
      <path
         d="M 0,1296 H 1728 V 0 H 0 Z"
         id="path22-5"
         inkscape:connector-curvature="0" />
    </clipPath>
    <clipPath
       clipPathUnits="userSpaceOnUse"
       id="clipPath116">
      <path
         d="M 0,1296 H 1728 V 0 H 0 Z"
         id="path114"
         inkscape:connector-curvature="0" />
    </clipPath>
    <clipPath
       clipPathUnits="userSpaceOnUse"
       id="clipPath162">
      <path
         d="M 0,1296 H 1728 V 0 H 0 Z"
         id="path160"
         inkscape:connector-curvature="0" />
    </clipPath>
    <clipPath
       clipPathUnits="userSpaceOnUse"
       id="clipPath178">
      <path
         d="M 0,1296 H 1728 V 0 H 0 Z"
         id="path176"
         inkscape:connector-curvature="0" />
    </clipPath>
    <clipPath
       clipPathUnits="userSpaceOnUse"
       id="clipPath194">
      <path
         d="M 0,1296 H 1728 V 0 H 0 Z"
         id="path192"
         inkscape:connector-curvature="0" />
    </clipPath>
    <clipPath
       clipPathUnits="userSpaceOnUse"
       id="clipPath206">
      <path
         d="m 1092.17,758.584 h 182.92 v -28.715 h -182.92 z"
         id="path204"
         inkscape:connector-curvature="0" />
    </clipPath>
    <clipPath
       clipPathUnits="userSpaceOnUse"
       id="clipPath210">
      <path
         d="m 1092.17,758.584 h 182.92 v -28.715 h -182.92 z"
         id="path208"
         inkscape:connector-curvature="0" />
    </clipPath>
    <clipPath
       clipPathUnits="userSpaceOnUse"
       id="clipPath234">
      <path
         d="m 1094.31,736.994 h 488.44 v -36.719 h -488.44 z"
         id="path232"
         inkscape:connector-curvature="0" />
    </clipPath>
    <clipPath
       clipPathUnits="userSpaceOnUse"
       id="clipPath238">
      <path
         d="m 1094.31,736.994 h 488.44 v -36.719 h -488.44 z"
         id="path236"
         inkscape:connector-curvature="0" />
    </clipPath>
    <clipPath
       clipPathUnits="userSpaceOnUse"
       id="clipPath262">
      <path
         d="M 1077.15,249.586 H 1252.3 V 222.103 H 1077.15 Z"
         id="path260"
         inkscape:connector-curvature="0" />
    </clipPath>
    <clipPath
       clipPathUnits="userSpaceOnUse"
       id="clipPath266">
      <path
         d="M 1077.15,249.586 H 1252.3 V 222.103 H 1077.15 Z"
         id="path264"
         inkscape:connector-curvature="0" />
    </clipPath>
    <clipPath
       clipPathUnits="userSpaceOnUse"
       id="clipPath290">
      <path
         d="m 1079.21,228.922 h 467.85 v -35.145 h -467.85 z"
         id="path288"
         inkscape:connector-curvature="0" />
    </clipPath>
    <clipPath
       clipPathUnits="userSpaceOnUse"
       id="clipPath294">
      <path
         d="m 1079.21,228.922 h 467.85 v -35.145 h -467.85 z"
         id="path292"
         inkscape:connector-curvature="0" />
    </clipPath>
  </defs>
  <sodipodi:namedview
     id="base"
     pagecolor="#ffffff"
     bordercolor="#666666"
     borderopacity="1.0"
     inkscape:pageopacity="0.0"
     inkscape:pageshadow="2"
     inkscape:zoom="0.57130282"
     inkscape:cx="18.058553"
     inkscape:cy="568"
     inkscape:document-units="mm"
     inkscape:current-layer="layer1"
     showgrid="false"
     units="px"
     inkscape:window-width="1440"
     inkscape:window-height="851"
     inkscape:window-x="0"
     inkscape:window-y="23"
     inkscape:window-maximized="0" />
  <metadata
     id="metadata5">
    <rdf:RDF>
      <cc:Work
         rdf:about="">
        <dc:format>image/svg+xml</dc:format>
        <dc:type
           rdf:resource="http://purl.org/dc/dcmitype/StillImage" />
        <dc:title />
      </cc:Work>
    </rdf:RDF>
  </metadata>
  <g
     inkscape:label="Layer 1"
     inkscape:groupmode="layer"
     id="layer1"
     transform="translate(0,-31.358303)">
    <rect
       style="fill:#ffffff;fill-opacity:1;stroke:#000000;stroke-width:0.26458332;stroke-opacity:1"
       id="rect6763"
       width="203.2"
       height="265.64166"
       x="1.5258788e-06"
       y="31.358305" />
    <g
       id="g5643"
       transform="matrix(1.9518056,0,0,1.9518056,18.973563,-293.11084)">
      <g
         transform="matrix(0.07329829,0,0,-0.07329829,19.957836,239.40094)"
         id="g10">
        <g
           transform="scale(1,-1)"
           id="g12">
          <path
             inkscape:connector-curvature="0"
             id="path14"
             style="fill:#ffffff;fill-opacity:1;fill-rule:nonzero;stroke:none"
             d="m 307.32031,-740.54785 c -0.61572,-0.0107 -1.21338,0.002 -1.84326,0.0312 -23.33398,1.06055 -35.38574,19.25 -39.59375,34.28125 -4.56934,16.32324 -1.29785,26.62402 -4.96875,31.46875 -9.08594,11.98926 -34.56934,22.08691 -50.6875,25.71875 0,0 2.69922,19.14453 6.8125,30.5625 4.11328,11.41797 8.875,18.59375 5.875,35.59375 -3,17 -26.85059,64.07617 -46,104.875 -22.13818,47.16699 -54.15478,118.00781 -54,204.125 0.0591,32.93066 4.07178,63.07617 9.59375,89 0.65772,1.03906 1.08203,1.93847 1.21875,2.71875 2.03223,11.57031 39.11621,39.41308 96.4375,45.15625 51.1084,5.12012 81.25537,-3.83496 80.96826,-52.3125 -0.53711,-90.87891 -73.18115,-183.16406 -69.99951,-240.78125 6.87012,-123.65235 99.69483,-213.19531 98.28076,-271.53125 -0.49023,-20.22852 -12.98633,-38.60938 -32.09375,-38.90625 0,0 0,0 0,0 z" />
          <path
             inkscape:connector-curvature="0"
             id="path16"
             style="fill:#8cadcb;fill-opacity:1;fill-rule:nonzero;stroke:none"
             d="m 286.30322,-761.3916 c -21,0 -44.49804,7.47949 -57,23.75 -18.25,23.75 -20,64.1875 -20,64.1875 0,0 -17.5,5.5625 -13.5,16.5625 3.45996,9.51562 11.60742,8.46289 13.75,8 0.0254,-0.0107 0.0674,-0.0254 0.0928,-0.0312 0.29004,-0.0654 0.46875,-0.125 0.46875,-0.125 16.11816,-3.63184 41.60156,-13.72949 50.6875,-25.71875 3.67089,-4.84375 0.39941,-15.14551 4.96875,-31.46875 4.208,-15.03125 16.25976,-33.2207 39.59375,-34.28125 20.16064,-0.91602 33.43213,17.99414 33.93798,38.875 1.41407,58.33594 -91.41162,147.8789 -98.28173,271.53125 -3.18067,57.61719 69.46338,149.90234 70.00048,240.78125 0.28711,48.47754 -29.86084,57.43262 -80.96923,52.3125 -57.3208,-5.74317 -94.40479,-33.58594 -96.43702,-45.15625 -0.1372,-0.78028 -0.56103,-1.67969 -1.21875,-2.71875 12.28223,57.65625 32,94.40625 32,94.40625 0,0 -34.34765,9.31836 -33.34375,16.09375 0.72217,4.87695 41.29639,23.19336 46.09375,22.53125 5.4419,-0.75098 26.17334,-24.02149 36.65577,-27.03125 12.8916,-3.70215 175.21728,14.68262 188.00048,23.25 3.73633,2.5039 0.82227,23.49609 9,29.75 4.25,3.25 70.88868,-6.92969 74,-11 2.44727,-3.20313 -24.4375,-23 -24.4375,-23 10.51758,-24.55371 23.1836,-46.6582 22.4375,-107 -1.16015,-93.87793 -39,-188.61719 -78.01562,-251.25391 22.73437,4.36328 66.01562,-7.24609 66.26562,-14.99609 0.29102,-8.9961 -16.25,-11.75 -23.25,-12.75 -7,-1 -61.68945,-31.50488 -87,-57.25 -3.63476,-13.91016 -5.41015,-26.48731 -4.75,-48.5 0.75,-25 12.75,-87 13.75,-129.25 0.85352,-36.0459 -22.75,-79.5 -83.49951,-80.5 z" />
          <path
             inkscape:connector-curvature="0"
             id="path18"
             style="fill:#8cadcb;fill-opacity:1;fill-rule:nonzero;stroke:none"
             d="m 176.43848,-476.92285 c -17.55567,4.6914 -45.39649,13.46387 -45.5,22.03125 -0.0913,7.52246 19.30371,7.15527 32.71875,6 4.40869,-10.09473 8.74902,-19.4336 12.78125,-28.03125 z" />
          <path
             inkscape:connector-curvature="0"
             id="path20"
             style="fill:none;stroke:#000000;stroke-width:10.1953001;stroke-linecap:round;stroke-linejoin:miter;stroke-miterlimit:2.81799006;stroke-dasharray:none;stroke-opacity:1"
             d="m 404.78711,-418.14551 c 31.41797,55.25196 67.0957,123.71387 77.59375,221.27344 5.72461,53.17285 -4.89063,111.29297 -22.01563,136.98047 20.60352,17.8457 29.875,23.4209 26.29102,24.66601 -6.32227,2.20313 -68.96289,11.54297 -73.86133,9.0918 -11.36914,-5.68164 -4.40429,-24.61133 -11.13281,-30.09375 -10.62109,-8.66211 -148.77686,-22.85547 -174.88818,-23.23437 -25.0586,-0.36817 -20.28516,8.53125 -48.92334,27.62109 -6.36475,0.9082 -48.16309,-19.09668 -46.81934,-22.98731 1.69629,-4.91113 11.81689,-8.83496 33.36621,-15.64257 -10.82764,-28.24512 -37.56689,-83.64551 -41.02002,-170.09766 -5.8125,-145.32812 82.5752,-250.87793 85.66699,-295.09961" />
          <path
             inkscape:connector-curvature="0"
             id="path22"
             style="fill:none;stroke:#000000;stroke-width:10.1953001;stroke-linecap:round;stroke-linejoin:miter;stroke-miterlimit:2.81799006;stroke-dasharray:none;stroke-opacity:1"
             d="m 210.02197,-673.46094 c 1.65528,-40.19824 19.00391,-79.80273 52.57032,-85.35937 68.44873,-11.33496 101.01318,24.50097 107.13037,69.02832 6.54492,47.58789 -25.38282,127.0332 -8.20899,186.65625" />
          <path
             inkscape:connector-curvature="0"
             id="path24"
             style="fill:none;stroke:#000000;stroke-width:10.1953001;stroke-linecap:round;stroke-linejoin:miter;stroke-miterlimit:2.81799006;stroke-dasharray:none;stroke-opacity:1"
             d="m 221.95068,-611.55371 c -5.81152,-10.37695 -9.50195,-23.34473 -11.13183,-37.48535" />
          <path
             inkscape:connector-curvature="0"
             id="path26"
             style="fill:none;stroke:#000000;stroke-width:10.1953001;stroke-linecap:round;stroke-linejoin:miter;stroke-miterlimit:2.81799006;stroke-dasharray:none;stroke-opacity:1"
             d="m 177.52686,-478.00293 c -25.79883,8.94238 -48.08252,15.65137 -48.08252,23.47266 0,7.82519 28.1455,5.58789 35.18359,3.35351" />
          <path
             inkscape:connector-curvature="0"
             id="path28"
             style="fill:none;stroke:#000000;stroke-width:10.1953001;stroke-linecap:round;stroke-linejoin:miter;stroke-miterlimit:2.81799006;stroke-dasharray:none;stroke-opacity:1"
             d="m 242.30615,-681.5498 c -9.73926,-0.38965 -22.61328,3.54003 -31.88574,8.02929 -4.72949,2.28711 -8.51953,4.72071 -10.48437,6.79883 -5.81836,6.16016 0.48535,16.29102 5.87304,17.95605 0.9336,0.28907 2.53223,0.20801 4.56836,-0.13964 9.65723,-1.65625 29.04785,-9.35645 33.22852,-12.20313 5.06445,-3.44726 16.7832,-7.00098 18.2207,-18.625 1.16895,-32.41406 16.41406,-62.59082 44.09375,-60.35742 34.05029,2.75098 37.20068,42.61133 30.96436,62.5918 -12.90039,41.35547 -83.27295,128.53613 -95.94873,237.08789 -8.61719,73.74511 103.25927,209.69238 59.99316,285.9707 -23.45996,41.35645 -162.31885,3.42285 -167.30371,-27.71582" />
          <path
             inkscape:connector-curvature="0"
             id="path30"
             style="fill:none;stroke:#000000;stroke-width:10.1953001;stroke-linecap:round;stroke-linejoin:miter;stroke-miterlimit:2.81799006;stroke-dasharray:none;stroke-opacity:1"
             d="m 361.51367,-503.13574 c 12.93164,16.16992 78.15039,56.64551 91.05664,57.76172 12.89844,1.12011 29.3125,14.53027 11.72071,19.00097 -14.60157,3.71582 -38.91993,10.51075 -59.50391,8.22754 0,0 0,0 0,0 -21.54297,-3.01465 -55.42578,-18.28613 -55.42578,-18.28613" />
          <path
             inkscape:connector-curvature="0"
             id="path32"
             style="fill:#000000;fill-opacity:1;fill-rule:nonzero;stroke:none"
             d="m 319.77344,-691.39648 c -6.58789,3.69335 -15.91162,-0.4004 -20.81397,-9.1504 -4.90722,-8.74316 -3.53711,-18.8291 3.04981,-22.52246 6.58838,-3.69921 15.90869,0.39454 20.81103,9.14356 4.90625,8.74609 3.54102,18.83008 -3.04687,22.5293 z" />
        </g>
      </g>
      <g
         id="g5611">
        <g
           id="g5585">
          <g
             id="g26"
             transform="matrix(0.20739571,0,0,-0.20739571,12.273461,245.29782)">
            <path
               d="m 0,0 c -3.999,0 -7.46,-1.469 -10.289,-4.365 -2.813,-2.879 -4.239,-6.33 -4.239,-10.258 0,-3.363 1.112,-6.494 3.303,-9.307 0,0 36.604,-46.472 38.279,-48.597 -3.476,0 -24.308,-0.006 -24.308,-0.006 -0.646,0 -0.949,0.209 -1.158,0.412 -0.237,0.228 -0.393,0.486 -0.393,1 0,2.027 -0.772,3.881 -2.232,5.367 -1.473,1.498 -3.355,2.287 -5.442,2.287 -5.115,0 -8.049,-3.066 -8.049,-8.412 0,-4.092 1.646,-7.857 4.89,-11.187 3.26,-3.354 7.175,-5.055 11.632,-5.055 h 28.429 c 3.506,0 6.684,1.463 9.448,4.348 2.736,2.857 4.124,6.224 4.124,10.013 0,3.319 -1.133,6.449 -3.366,9.305 0,0 -36.55,46.414 -38.272,48.601 h 24.279 c 0.71,0 1.242,-0.107 1.614,-1.459 0.722,-2.621 1.486,-4.357 2.405,-5.472 1.171,-1.416 3.074,-2.135 5.658,-2.135 1.979,0 3.768,0.768 5.32,2.287 1.546,1.512 2.362,3.457 2.362,5.629 0,4.715 -1.78,8.781 -5.289,12.086 C 35.239,-1.654 31.454,0 27.456,0 Z"
               style="fill:#9eb0c9;fill-opacity:1;fill-rule:nonzero;stroke:#000000;stroke-opacity:1"
               id="path28-2"
               inkscape:connector-curvature="0" />
          </g>
          <g
             id="g30"
             transform="matrix(0.20739571,0,0,-0.20739571,28.101052,245.29782)">
            <path
               d="m 0,0 c -2.796,0 -5.672,-0.977 -8.548,-2.906 -2.798,-1.879 -4.904,-4.108 -6.262,-6.627 l -12.256,-23.194 c -1.726,-3.218 -2.606,-7.048 -2.606,-11.365 0,-3.908 0.905,-7.765 2.689,-11.469 l 12.153,-23.492 c 1.272,-2.39 3.462,-4.513 6.522,-6.332 3.054,-1.814 6.102,-2.736 9.056,-2.736 h 19.658 c 2.101,0 4.015,0.775 5.539,2.242 1.552,1.494 2.373,3.414 2.373,5.553 0,2.137 -0.822,4.056 -2.377,5.551 -1.548,1.488 -3.414,2.242 -5.543,2.242 H 1.4 c -1.404,-0.008 -2.222,0.525 -2.838,1.84 l -11.115,21.474 c -0.812,1.531 -1.233,3.326 -1.263,5.364 -10e-4,1.857 0.358,3.492 1.067,4.824 l 11.558,21.775 c 0.822,1.559 1.488,1.541 1.773,1.535 h 20.191 c 2.144,0 4.067,0.821 5.563,2.373 1.471,1.53 2.249,3.448 2.249,5.549 0,2.07 -0.78,3.961 -2.257,5.469 C 24.838,-0.805 22.926,0 20.796,0 Z"
               style="fill:#9eb0c9;fill-opacity:1;fill-rule:nonzero;stroke:#000000;stroke-opacity:1"
               id="path32-7"
               inkscape:connector-curvature="0" />
          </g>
          <g
             id="g34"
             transform="matrix(0.20739571,0,0,-0.20739571,38.207133,255.3877)">
            <path
               d="m 0,0 -0.004,0.002 c -0.562,0.559 -0.812,1.137 -0.812,1.869 v 5.838 c 0,0.777 0.242,1.361 0.784,1.9 0.547,0.543 1.141,0.787 1.929,0.787 h 20.659 c 0.781,0 1.363,-0.236 1.89,-0.765 0.538,-0.541 0.801,-1.195 0.825,-2.053 0,0 0.113,-1.629 0.208,-2.982 -2.006,-1.147 -8.545,-4.887 -9.461,-5.412 H 1.897 C 1.151,-0.816 0.566,-0.564 0,0 m 1.923,48.65 c -2.12,0 -4.028,-0.787 -5.52,-2.277 -1.488,-1.49 -2.275,-3.396 -2.275,-5.516 0,-2.082 0.798,-3.98 2.307,-5.488 1.509,-1.508 3.408,-2.306 5.488,-2.306 h 20 c 0.797,0 1.398,-0.245 1.953,-0.792 0.542,-0.537 0.785,-1.123 0.785,-1.896 0,0 0.076,-2.207 0.148,-4.314 -0.86,0.123 -1.618,0.189 -2.257,0.189 H 1.918 c -5.064,0 -9.452,-1.814 -13.042,-5.393 -3.593,-3.58 -5.415,-7.955 -5.415,-13.005 V 1.727 c 0,-5.088 1.807,-9.477 5.369,-13.036 3.561,-3.558 7.95,-5.361 13.047,-5.361 h 18.449 c 0,0 4.18,2.445 6.792,3.977 0.356,-0.612 0.684,-1.237 1.217,-1.752 1.525,-1.475 3.404,-2.225 5.583,-2.225 2.071,0 3.962,0.777 5.468,2.248 1.525,1.486 2.331,3.397 2.331,5.524 l -1.335,39.369 c -0.143,5.049 -2.01,9.39 -5.547,12.89 -3.549,3.51 -7.892,5.289 -12.908,5.289 z"
               style="fill:#9eb0c9;fill-opacity:1;fill-rule:nonzero;stroke:#000000;stroke-opacity:1"
               id="path36"
               inkscape:connector-curvature="0" />
          </g>
          <g
             id="g38"
             transform="matrix(0.20739571,0,0,-0.20739571,49.980884,245.77458)">
            <path
               d="m 0,0 c -1.513,-1.506 -2.312,-3.398 -2.312,-5.479 v -80.343 h 50.214 c 2.1,0 4.015,0.775 5.538,2.242 1.551,1.496 2.372,3.416 2.372,5.553 0,2.134 -0.821,4.052 -2.37,5.547 -1.522,1.468 -3.438,2.246 -5.538,2.246 H 13.278 V -5.477 C 13.278,-3.4 12.479,-1.508 10.965,0 9.455,1.506 7.56,2.299 5.483,2.299 3.406,2.299 1.51,1.506 0,0"
               style="fill:#9eb0c9;fill-opacity:1;fill-rule:nonzero;stroke:#000000;stroke-opacity:1"
               id="path40"
               inkscape:connector-curvature="0" />
          </g>
          <g
             id="g42"
             transform="matrix(0.20739571,0,0,-0.20739571,63.876293,245.29782)">
            <path
               d="m 0,0 h -2.528 v -88.121 h 50.214 c 2.099,0 4.013,0.775 5.539,2.242 1.55,1.496 2.369,3.416 2.369,5.553 0,2.125 -0.801,4.037 -2.319,5.531 -1.505,1.481 -3.394,2.262 -5.462,2.262 H 13.062 v 20.679 h 13.534 c 2.131,0 4.047,0.803 5.538,2.327 1.478,1.507 2.261,3.443 2.261,5.595 0,2.082 -0.799,3.981 -2.31,5.491 -1.51,1.509 -3.409,2.308 -5.489,2.308 H 13.062 v 20.412 h 34.626 c 2.109,0 4.031,0.793 5.556,2.293 1.537,1.516 2.35,3.418 2.35,5.504 0,2.119 -0.807,4.049 -2.332,5.58 C 51.73,-0.809 49.803,0 47.686,0 Z"
               style="fill:#9eb0c9;fill-opacity:1;fill-rule:nonzero;stroke:#000000;stroke-opacity:1"
               id="path44"
               inkscape:connector-curvature="0" />
          </g>
        </g>
        <g
           id="g5592">
          <g
             id="g46"
             transform="matrix(0.20739571,0,0,-0.20739571,29.945799,266.9488)">
            <path
               d="m 0,0 h -26.244 c -2.111,0 -4.012,-0.789 -5.494,-2.285 -1.477,-1.488 -2.256,-3.393 -2.256,-5.508 0,-2.117 0.775,-4.021 2.246,-5.51 1.477,-1.496 3.373,-2.285 5.482,-2.285 h 13.203 v -56.945 h -13.464 c -2.1,0 -3.991,-0.774 -5.467,-2.24 -1.483,-1.469 -2.268,-3.348 -2.268,-5.428 0,-2.133 0.752,-3.996 2.231,-5.543 1.486,-1.553 3.402,-2.377 5.539,-2.377 h 42.316 c 2.114,0 4.016,0.783 5.5,2.269 1.487,1.487 2.27,3.391 2.27,5.504 v 27.108 c 0,2.115 -0.789,4.019 -2.281,5.508 -1.491,1.482 -3.397,2.265 -5.512,2.265 -2.127,0 -4.039,-0.801 -5.531,-2.312 -1.481,-1.502 -2.264,-3.387 -2.264,-5.453 V -72.533 H 2.527 V 0 Z"
               style="fill:#9eb0c9;fill-opacity:1;fill-rule:nonzero;stroke:#000000;stroke-opacity:1"
               id="path48"
               inkscape:connector-curvature="0" />
          </g>
          <path
             d="m 45.058206,281.99183 h -5.532903 v -2.40849 h 5.532903 z m -7.136901,-15.04304 c -0.442997,0 -0.841197,0.16198 -1.151876,0.46893 -0.312338,0.30922 -0.477217,0.70493 -0.477217,1.14565 v 15.04677 c 0,0.43325 0.16882,0.82751 0.488416,1.14068 0.315657,0.30943 0.714271,0.4739 1.152084,0.4739 h 8.745877 c 0.435323,0 0.832694,-0.16094 1.148765,-0.46519 0.32167,-0.31027 0.491735,-0.70847 0.491735,-1.15146 v -5.64262 c 0,-0.4376 -0.164465,-0.83643 -0.475559,-1.15333 -0.313582,-0.32042 -0.708463,-0.48924 -1.141506,-0.48924 h -7.176513 v -6.24386 c 0.225646,-0.0782 0.436153,-0.19309 0.612439,-0.37145 0.304872,-0.30943 0.465811,-0.70431 0.465811,-1.14254 0,-0.42786 -0.160109,-0.81921 -0.4627,-1.13155 -0.306945,-0.31711 -0.701412,-0.48469 -1.141091,-0.48469 z"
             style="fill:#9eb0c9;fill-opacity:1;fill-rule:nonzero;stroke:#000000;stroke-width:0.2073957;stroke-opacity:1"
             id="path66"
             inkscape:connector-curvature="0" />
          <g
             id="g82"
             transform="matrix(0.20739571,0,0,-0.20739571,58.763846,272.21437)">
            <path
               d="m 0,0 c 0,0 -11.227,-13.445 -14.238,-17.049 -2.987,3.6 -13.914,16.772 -13.914,16.772 -1.569,1.877 -3.715,2.865 -6.207,2.865 -2.262,0 -4.229,-0.863 -5.684,-2.504 -1.4,-1.572 -2.111,-3.389 -2.111,-5.397 0,-1.779 0.652,-3.447 1.886,-4.818 0,0 13.627,-16.26 15.932,-19.012 -2.332,-2.795 -17.432,-20.878 -17.432,-20.878 -1.05,-1.249 -1.587,-2.87 -1.587,-4.809 0,-2.137 0.763,-4.061 2.205,-5.563 1.468,-1.531 3.396,-2.339 5.574,-2.339 2.447,0 4.588,1.095 6.187,3.171 0,0 12.028,14.463 15.08,18.135 3.051,-3.678 15.106,-18.205 15.106,-18.205 1.678,-2.027 3.822,-3.101 6.195,-3.101 2.035,0 3.92,0.812 5.449,2.351 1.522,1.537 2.327,3.537 2.327,5.787 0,1.785 -0.59,3.389 -1.707,4.637 0,0 -14.905,17.965 -17.211,20.746 2.293,2.758 16.396,19.719 16.396,19.719 0.865,0.949 1.322,2.467 1.322,4.554 0,2.194 -0.879,4.102 -2.541,5.516 C 9.463,1.914 7.672,2.588 5.707,2.588 3.465,2.588 1.492,1.693 0,0"
               style="fill:#9eb0c9;fill-opacity:1;fill-rule:nonzero;stroke:#000000;stroke-opacity:1"
               id="path84"
               inkscape:connector-curvature="0" />
          </g>
        </g>
      </g>
    </g>
  </g>
</svg>
