<?xml version="1.0" encoding="UTF-8"?>
<svg width="123px" height="189px" viewBox="0 0 123 189" version="1.1" xmlns="http://www.w3.org/2000/svg" xmlns:xlink="http://www.w3.org/1999/xlink" style="background: #FFFFFF;">
    <!-- Generator: Sketch 47.1 (45422) - http://www.bohemiancoding.com/sketch -->
    <title>HomePageBanner</title>
    <desc>Created with Sketch.</desc>
    <defs></defs>
    <g id="Page-1" stroke="none" stroke-width="1" fill="none" fill-rule="evenodd">
        <g id="HomePageBanner">
            <g id="g5643">
                <g id="g10" transform="translate(61.533253, 50.630517) scale(-1, 1) rotate(-180.000000) translate(-61.533253, -50.630517) translate(36.533253, 0.130517)">
                    <g id="g12" transform="translate(25.000000, 50.125619) scale(-1, 1) rotate(-180.000000) translate(-25.000000, -50.125619) translate(0.000000, 0.125619)">
                        <path d="M24.9371702,2.88528852 C24.8543174,2.88384938 24.7738947,2.88555752 24.6891365,2.88948488 C21.549257,3.03212759 19.9275417,5.47858686 19.3613012,7.500272 C18.7464393,9.69572826 19.1866592,11.0811709 18.6926936,11.7327812 C17.4700665,13.3453224 14.0409557,14.7034442 11.8720553,15.1919224 C11.8720553,15.1919224 12.2352692,17.7668387 12.7887625,19.3025421 C13.3422559,20.8382454 13.983005,21.8033792 13.5793174,24.0898589 C13.1756298,26.3763385 9.96623402,32.7080271 7.38944091,38.1954209 C4.41047135,44.5393247 0.102236575,54.0673302 0.123064164,65.6499893 C0.13101681,70.0791237 0.670973192,74.1336587 1.41402346,77.6203828 C1.50252793,77.7601352 1.55962416,77.8811047 1.57802155,77.9860515 C1.85148356,79.5422443 6.84159782,83.2870636 14.5548958,84.0595131 C21.4321715,84.7481631 25.4888241,83.5437155 25.4501899,77.0235444 C25.377915,64.8004397 15.602749,52.3881974 16.0308785,44.6387543 C16.9553393,28.0076611 29.4460673,15.96424 29.2557865,8.11812589 C29.1898199,5.39741414 27.508313,2.92521045 24.9371702,2.88528179 C24.9371702,2.88528179 24.9371702,2.88528179 24.9371702,2.88528179 L24.9371702,2.88528852 Z" id="path14" fill="#FFFFFF" fill-rule="nonzero"></path>
                        <path d="M22.1090574,0.0818290723 C19.2832442,0.0818290723 16.1212884,1.08781153 14.438993,3.27617567 C11.9832268,6.47052226 11.7477424,11.9093176 11.7477424,11.9093176 C11.7477424,11.9093176 9.39289805,12.6574672 9.93114818,14.1369541 C10.3967292,15.4167936 11.493072,15.2752027 11.781383,15.2129445 C11.7848009,15.2115054 11.7904525,15.2095283 11.7938704,15.2087482 C11.8328989,15.1999519 11.8569466,15.1919358 11.8569466,15.1919358 C14.025847,14.7034577 17.4549579,13.3453358 18.677585,11.7327947 C19.1715492,11.0813161 18.7313306,9.69574171 19.3461925,7.50028545 C19.9124317,5.47860031 21.534147,3.03214104 24.6740278,2.88949833 C27.3868946,2.76629474 29.1727399,5.30968864 29.2408083,8.11813934 C29.4310892,15.9642535 16.9402293,28.0076745 16.0157699,44.6387677 C15.5877708,52.3882108 25.3629382,64.8004531 25.4352117,77.0235578 C25.473846,83.543729 21.4170615,84.7481765 14.5397871,84.0595265 C6.82655507,83.287077 1.83643947,79.5422578 1.56297745,77.9860649 C1.54451547,77.8811182 1.48748384,77.7601486 1.39897937,77.6203963 C3.05170734,85.375093 5.7049804,90.317924 5.7049804,90.317924 C5.7049804,90.317924 1.08307364,91.5712323 1.21816097,92.4825141 C1.31533799,93.1384581 6.77510778,95.6019933 7.42065269,95.5129403 C8.15292854,95.4119344 10.9426036,92.2820786 12.3531459,91.8772695 C14.0878723,91.3793348 35.9308268,93.8520643 37.6509666,95.0043667 C38.1537366,95.3411383 37.7616133,98.1645627 38.8620294,99.0057061 C39.4339202,99.4428272 48.4009897,98.0736711 48.8196568,97.5262193 C49.1489676,97.0954021 45.5312849,94.4327468 45.5312849,94.4327468 C46.9465571,91.1303022 48.6509288,88.1572747 48.5505317,80.0413748 C48.394419,67.4149055 43.302593,54.6725883 38.0525523,46.2480244 C41.1117467,46.8348803 46.9357813,45.2734339 46.969422,44.2310682 C47.0085824,43.0211035 44.7827808,42.6507073 43.8408431,42.5162085 C42.8989054,42.3817096 35.5397545,38.2788398 32.1339028,34.8161519 C31.6448003,32.945252 31.4058993,31.2536404 31.4947308,28.2929599 C31.5956527,24.9304898 33.210403,16.591564 33.3449656,10.9089895 C33.4598174,6.06085908 30.283668,0.216334601 22.1090601,0.0818357973 L22.1090574,0.0818290723 Z" id="path16" fill="#8CADCB" fill-rule="nonzero"></path>
                        <path d="M7.32537973,38.3425357 C4.96304432,38.9735234 1.21671307,40.1534101 1.2027845,41.3057125 C1.19049895,42.3174744 3.80034061,42.2680877 5.60550236,42.1127053 C6.19874685,40.7549762 6.78279265,39.4989094 7.32537973,38.3425357 Z" id="path18" fill="#8CADCB" fill-rule="nonzero"></path>
                        <path d="M38.0525496,46.2480176 C42.2802313,53.6793402 47.081117,62.8873852 48.4937611,76.0090307 C49.2640792,83.1607154 47.8356656,90.977802 45.5312822,94.4327401 C48.303744,96.8329654 49.5513379,97.5828231 49.0690685,97.7502889 C48.2183278,98.0466073 39.7892473,99.3028046 39.1301008,98.9731251 C37.6002406,98.2089514 38.5374484,95.6629307 37.6320417,94.9255518 C36.202841,93.7605083 17.6122507,91.8515184 14.0986453,91.8005568 C10.7266967,91.7510384 11.3690228,92.9479997 7.51539683,95.5155603 C6.65893995,95.6377122 1.03444947,92.9470797 1.21526787,92.4237946 C1.44352495,91.7632535 2.80537851,91.2355031 5.70510958,90.3198877 C4.24811493,86.5209528 0.650013732,79.0696666 0.185351815,67.4419559 C-0.596792905,47.8954975 11.2968798,33.6991743 11.7129189,27.7514113" id="path20" stroke="#000000" stroke-width="1.37404807" stroke-linecap="round"></path>
                        <path d="M11.8444592,11.9083977 C12.0671979,6.50178247 14.4016734,1.17502594 18.9184546,0.427664502 C28.129089,-1.09687406 32.5110439,3.72301566 33.3341885,9.71189098 C34.2148895,16.1124053 29.9186119,26.7977044 32.229566,34.8169334" id="path22" stroke="#000000" stroke-width="1.37404807" stroke-linecap="round"></path>
                        <path d="M13.4496166,20.2348461 C12.6676038,18.8391587 12.1710102,17.0950078 11.9516894,15.1931113" id="path24" stroke="#000000" stroke-width="1.37404807" stroke-linecap="round"></path>
                        <path d="M7.4718349,38.1972662 C4.000279,39.4000057 1.00172924,40.3023568 1.00172924,41.3543109 C1.00172924,42.4067896 4.789059,42.1058755 5.73612221,41.805354" id="path26" stroke="#000000" stroke-width="1.37404807" stroke-linecap="round"></path>
                        <path d="M16.1887002,10.8204557 C14.8781607,10.7680482 13.1458,11.2965855 11.8980743,11.9003856 C11.2616621,12.2079991 10.7516648,12.5353154 10.4872709,12.8148201 C9.70433765,13.6433542 10.5525808,15.0059428 11.277562,15.2298873 C11.4031896,15.2687669 11.6183053,15.2578644 11.8922921,15.2111059 C13.1917935,14.9883423 15.8010444,13.9526746 16.3636059,13.5697995 C17.0450911,13.1061472 18.6219958,12.6281761 18.8154295,11.0647593 C18.9727263,6.70510701 21.0241469,2.64636888 24.7487961,2.94675851 C29.3306894,3.31676203 29.7546138,8.67793143 28.9154388,11.3652807 C27.1795297,16.927542 17.7100198,28.6532365 16.0043347,43.2533184 C14.8447838,53.1719475 29.8991636,71.4566927 24.0771663,81.7160355 C20.9203346,87.2784286 2.23513076,82.1764047 1.56435537,77.9882909" id="path28" stroke="#000000" stroke-width="1.37404807" stroke-linecap="round"></path>
                        <path d="M32.229566,34.8169334 C33.9696802,36.9917683 42.7456804,42.4356867 44.482378,42.5858156 C46.2180248,42.7364691 48.4267423,44.5401196 46.0595465,45.1414234 C44.0947222,45.6411967 40.8223821,46.5551067 38.0525496,46.2480176 C38.0525496,46.2480176 38.0525496,46.2480176 38.0525496,46.2480176 C35.153673,45.8425508 30.5943163,43.788555 30.5943163,43.788555" id="path30" stroke="#000000" stroke-width="1.37404807" stroke-linecap="round"></path>
                        <path d="M26.6128949,9.496089 C25.7264118,9.99284015 24.471787,9.44223568 23.8121144,8.26537114 C23.1517865,7.08942658 23.3361519,5.73287971 24.2225046,5.23612721 C25.1090537,4.73858789 26.3632182,5.28919237 27.0228895,6.46592509 C27.6830869,7.64226374 27.4993781,8.99854833 26.6128949,9.496089 Z" id="path32" fill="#000000" fill-rule="nonzero"></path>
                    </g>
                </g>
                <g id="g5611" transform="translate(0.000000, 113.766990)" stroke="#000000" fill="#9EB0C9" fill-rule="nonzero">
                    <g id="g5585" stroke-width="0.919344062">
                        <g id="g26" transform="translate(11.798367, 17.416420) scale(-1, 1) rotate(-180.000000) translate(-11.798367, -17.416420) translate(0.298367, 0.416420)">
                            <path d="M5.71112067,33.8699343 C4.1885359,33.8699343 2.87078999,33.3108902 1.79367263,32.2087853 C0.722647136,31.11315 0.17970993,29.7998338 0.17970993,28.30499 C0.17970993,27.0251631 0.603094343,25.8336264 1.4372987,24.7631082 C1.4372987,24.7631082 15.3739561,7.0776746 16.0116979,6.26898234 C14.6882409,6.26898234 6.7566365,6.26669898 6.7566365,6.26669898 C6.51067756,6.26669898 6.39531293,6.34623624 6.31573798,6.42349013 C6.22550227,6.51025806 6.16610662,6.60844281 6.16610662,6.80405119 C6.16610662,7.57544846 5.87217427,8.28100867 5.31629186,8.8465224 C4.75545981,9.41660287 4.03890454,9.71686555 3.24429728,9.71686555 C1.29680513,9.71686555 0.17970993,8.55006534 0.17970993,6.51558591 C0.17970993,4.95833005 0.806410239,3.52551766 2.04153527,2.25824933 C3.28275216,0.981847535 4.77335466,0.334513172 6.47031898,0.334513172 L17.2944156,0.334513172 C18.6292949,0.334513172 19.839291,0.891274003 20.8916602,1.98919266 C21.9333686,3.07645561 22.4618376,4.3578047 22.4618376,5.79975056 C22.4618376,7.06283271 22.0304576,8.25398883 21.1802621,9.34087122 C21.1802621,9.34087122 7.26416475,27.0042323 6.6085281,27.8365193 L15.852548,27.8365193 C16.1228744,27.8365193 16.3254288,27.7957993 16.4670646,27.2812807 C16.7419599,26.2838302 17.0328463,25.6231762 17.3827476,25.1988506 C17.8285958,24.6599761 18.5531466,24.3863527 19.5369823,24.3863527 C20.2904695,24.3863527 20.9716158,24.6786236 21.5625265,25.2566959 C22.1511526,25.8321042 22.4618376,26.5722955 22.4618376,27.3988741 C22.4618376,29.1932195 21.7841179,30.7405808 20.4480965,31.9983351 C19.1280661,33.2404864 17.68696,33.8699343 16.1647559,33.8699343 L5.71112067,33.8699343 Z" id="path28-2"></path>
                        </g>
                        <g id="g30" transform="translate(35.143869, 17.416420) scale(-1, 1) rotate(-180.000000) translate(-35.143869, -17.416420) translate(23.643869, 0.416420)">
                            <path d="M11.4222413,33.8699343 C10.3576884,33.8699343 9.26267625,33.4981262 8.16766404,32.7640239 C7.10234967,32.0489497 6.30050832,31.2006791 5.78346153,30.2420458 L1.1170952,21.4153125 C0.459935585,20.190667 0.124883172,18.7331182 0.124883172,17.0902361 C0.124883172,15.6030035 0.469454119,14.1351795 1.14869674,12.7255813 L5.77584671,3.78544086 C6.26014974,2.87589993 7.09397336,2.0679688 8.25904197,1.37572823 C9.42182614,0.685390469 10.5823259,0.334513172 11.7070359,0.334513172 L19.1916499,0.334513172 C19.9915875,0.334513172 20.7203265,0.629447993 21.3005764,1.18773107 C21.891487,1.75628929 22.2040757,2.48696653 22.2040757,3.30098664 C22.2040757,4.11424562 21.8911063,4.8445423 21.2990534,5.41348108 C20.7096658,5.97975594 19.9992024,6.26669898 19.188604,6.26669898 L11.9552793,6.26669898 C11.4207184,6.26365449 11.1092719,6.46649353 10.8747352,6.96693133 L6.64279482,15.1390995 C6.33363282,15.7217385 6.1733407,16.4048456 6.16191846,17.1804291 C6.16153772,17.8871309 6.29822388,18.5093483 6.56816951,19.0162556 L10.9687784,27.3029727 C11.2817478,27.8962674 11.5353215,27.8894173 11.6438328,27.8871339 L19.331382,27.8871339 C20.1476915,27.8871339 20.8798572,28.1995746 21.4494463,28.7902053 C22.0095168,29.3724637 22.3057336,30.1023799 22.3057336,30.9019386 C22.3057336,31.6897 22.0087554,32.409341 21.4464003,32.9832271 C20.8790957,33.5635827 20.1511182,33.8699343 19.340139,33.8699343 L11.4222413,33.8699343 Z" id="path32-7"></path>
                        </g>
                        <g id="g34" transform="translate(58.646462, 13.030463) scale(-1, 1) rotate(-180.000000) translate(-58.646462, -13.030463) translate(47.146462, 0.530463)">
                            <path d="M6.47260343,6.46953802 L6.47108046,6.47029914 C6.25710381,6.68303278 6.16191846,6.90299707 6.16191846,7.18156777 L6.16191846,9.40328323 C6.16191846,9.69897918 6.25405788,9.92122684 6.4604197,10.1263492 C6.66868524,10.3329939 6.89484562,10.4258508 7.19486982,10.4258508 L15.060606,10.4258508 C15.357965,10.4258508 15.5795564,10.3360384 15.7802072,10.1347216 C15.985046,9.92883806 16.085181,9.67995112 16.0943188,9.35342974 C16.0943188,9.35342974 16.1373426,8.73349577 16.173513,8.21859665 C15.4097458,7.78209312 12.9200779,6.35879475 12.5713188,6.1590002 L7.19486982,6.1590002 C6.91083675,6.1590002 6.68810305,6.25490158 6.47260343,6.46953802 L6.47260343,6.46953802 Z M7.2047691,24.9838336 C6.39759738,24.9838336 5.67114283,24.684332 5.10307669,24.1172961 C4.53653352,23.5502601 4.23689006,22.8249107 4.23689006,22.0181213 C4.23689006,21.2257931 4.54072167,20.5034882 5.11526041,19.9296022 C5.68979915,19.3557161 6.41282703,19.0520284 7.2047691,19.0520284 L14.8195967,19.0520284 C15.1230475,19.0520284 15.3518731,18.9587909 15.5631846,18.750624 C15.7695464,18.5462627 15.8620666,18.3232539 15.8620666,18.0290802 C15.8620666,18.0290802 15.8910029,17.189182 15.9184163,16.3873398 C15.5909787,16.4341488 15.3023767,16.4592658 15.059083,16.4592658 L7.20286539,16.4592658 C5.27479105,16.4592658 3.60409788,15.7689281 2.23723634,14.4069001 C0.869232566,13.0444915 0.175521775,11.3795368 0.175521775,9.45770347 L0.175521775,7.12676697 C0.175521775,5.1904723 0.863521445,3.52018981 2.21972223,2.16577299 C3.57554228,0.811736741 5.24661619,0.12558515 7.18725499,0.12558515 L14.2115527,0.12558515 C14.2115527,0.12558515 15.8030516,1.05605694 16.7975481,1.63907649 C16.933092,1.40617312 17.0579752,1.16832245 17.2609104,0.972333509 C17.841541,0.411005945 18.556954,0.12558515 19.3865895,0.12558515 C20.1751049,0.12558515 20.8950868,0.421281094 21.4684833,0.981086413 C22.0491139,1.54660015 22.3559915,2.27385233 22.3559915,3.08330571 L21.8477018,18.0656141 C21.7932557,19.9870669 21.0824116,21.6390824 19.7357293,22.9710461 C18.3844782,24.3068155 16.7309184,24.9838336 14.8211196,24.9838336 L7.2047691,24.9838336 Z" id="path36"></path>
                        </g>
                        <g id="g38" transform="translate(85.591339, 17.149568) scale(-1, 1) rotate(-180.000000) translate(-85.591339, -17.149568) translate(74.091339, 0.149568)">
                            <path d="M1.14222413,32.7282512 C0.566162429,32.1551262 0.261950068,31.4351047 0.261950068,30.6431571 L0.261950068,0.0677398687 L19.3804976,0.0677398687 C20.1800545,0.0677398687 20.9091743,0.36267469 21.4890434,0.920957765 C22.0795733,1.49027711 22.3921619,2.22095435 22.3921619,3.03421333 C22.3921619,3.84633063 22.0795733,4.57624675 21.4898049,5.14518553 C20.9103165,5.70384917 20.180816,5.99992567 19.3812591,5.99992567 L6.19770815,5.99992567 L6.19770815,30.6439182 C6.19770815,31.4343436 5.89349579,32.1543651 5.31705334,32.7282512 C4.74213386,33.3013761 4.02062895,33.603161 3.22982911,33.603161 C2.43902927,33.603161 1.71714362,33.3013761 1.14222413,32.7282512" id="path40"></path>
                        </g>
                        <g id="g42" transform="translate(111.100821, 17.416420) scale(-1, 1) rotate(-180.000000) translate(-111.100821, -17.416420) translate(99.600821, 0.416420)">
                            <path d="M1.14222413,33.8699343 L0.17970993,33.8699343 L0.17970993,0.334513172 L19.2982575,0.334513172 C20.0974336,0.334513172 20.8261726,0.629447993 21.407184,1.18773107 C21.9973331,1.75705041 22.3091603,2.48772765 22.3091603,3.30098664 C22.3091603,4.10967889 22.0041865,4.83731163 21.4262211,5.40586986 C20.8532053,5.96948079 20.1339848,6.26669898 19.3466116,6.26669898 L6.11546801,6.26669898 L6.11546801,14.1363211 L11.2684218,14.1363211 C12.0797817,14.1363211 12.8092822,14.4419117 13.3769676,15.0218867 C13.9397033,15.5953922 14.2378238,16.3321585 14.2378238,17.1511259 C14.2378238,17.943454 13.9336115,18.6661394 13.3583112,19.2407866 C12.7833918,19.8150533 12.0603639,20.1191216 11.2684218,20.1191216 L6.11546801,20.1191216 L6.11546801,27.8871339 L19.299019,27.8871339 C20.1020025,27.8871339 20.8337875,28.1889188 21.4144181,28.7597604 C21.9996176,29.336691 22.3091603,30.0605181 22.3091603,30.8543685 C22.3091603,31.6607774 22.001902,32.3952602 21.4212714,32.9778992 C20.8379756,33.5620605 20.104287,33.8699343 19.2982575,33.8699343 L1.14222413,33.8699343 Z" id="path44"></path>
                        </g>
                    </g>
                    <g id="g5592" transform="translate(24.865672, 39.533981)">
                        <g id="g46" transform="translate(11.761116, 17.610936) scale(-1, 1) rotate(-180.000000) translate(-11.761116, -17.610936) translate(0.261116, 0.610936)" stroke-width="0.919344062">
                            <path d="M13.3259482,33.8699343 L3.33377151,33.8699343 C2.53002646,33.8699343 1.8062371,33.5696717 1.24197838,33.0003523 C0.67962336,32.4340775 0.383025826,31.7091086 0.383025826,30.904222 C0.383025826,30.0985742 0.678100394,29.373986 1.23817096,28.8073306 C1.80052598,28.2380112 2.52241163,27.9377485 3.3253952,27.9377485 L8.35232361,27.9377485 L8.35232361,6.26669898 L3.2260217,6.26669898 C2.4264648,6.26669898 1.70648286,5.97214472 1.14450858,5.4142422 C0.579869119,4.855198 0.280987137,4.14012377 0.280987137,3.34855677 C0.280987137,2.53682003 0.567304653,1.82783477 1.13042115,1.23910681 C1.69620284,0.648095485 2.42570332,0.334513172 3.23934764,0.334513172 L19.3507998,0.334513172 C20.1556871,0.334513172 20.8798572,0.632492482 21.4448774,1.19800622 C22.0110398,1.76390051 22.3091603,2.48848877 22.3091603,3.29261429 L22.3091603,13.6088635 C22.3091603,14.4137502 22.0087554,15.1383384 21.4406892,15.7049938 C20.8730038,16.2689853 20.1473108,16.5669646 19.3420427,16.5669646 C18.5322058,16.5669646 17.8042283,16.2621352 17.2361622,15.6871075 C16.6722842,15.1155047 16.3741637,14.3981471 16.3741637,13.611908 L16.3741637,6.26669898 L14.2880817,6.26669898 L14.2880817,33.8699343 L13.3259482,33.8699343 Z" id="path48"></path>
                        </g>
                        <path d="M41.3307364,28.3442317 L31.1733174,28.3442317 L31.1733174,23.9247695 L41.3307364,23.9247695 L41.3307364,28.3442317 Z M28.2286644,0.740983592 C27.4154013,0.740983592 26.6843774,1.03820903 26.1140264,1.60144738 C25.5406297,2.16885107 25.2379414,2.89495971 25.2379414,3.70365951 L25.2379414,31.313752 C25.2379414,32.1087448 25.5478647,32.8321927 26.1345857,33.4068445 C26.7140754,33.9746335 27.4458594,34.276428 28.2496056,34.276428 L44.3054694,34.276428 C45.1046444,34.276428 45.8341464,33.9811109 46.4143961,33.4228269 C47.0049247,32.8534965 47.3171335,32.1228188 47.3171335,31.3099537 L47.3171335,20.9560199 C47.3171335,20.1530451 47.0152053,19.4212115 46.4440924,18.8397153 C45.868412,18.2517602 45.1434812,17.9419837 44.3484918,17.9419837 L31.1736993,17.9419837 L31.1736993,6.48480369 C31.5879449,6.34131049 31.9743981,6.13049291 32.2980276,5.80321097 C32.857718,5.23542194 33.1531732,4.51083631 33.1531732,3.70670553 C33.1531732,2.9216032 32.8592417,2.20349495 32.3037389,1.63036621 C31.7402428,1.04848476 31.016072,0.740983592 30.2089001,0.740983592 L28.2286644,0.740983592 Z" id="path66" stroke-width="0.5"></path>
                        <g id="g82" transform="translate(61.239216, 21.878414) scale(-1, 1) rotate(-180.000000) translate(-61.239216, -21.878414) translate(49.739216, 9.378414)" stroke-width="0.919344062">
                            <path d="M16.7526206,23.9753468 C16.7526206,23.9753468 12.4780372,18.8587033 11.3316249,17.4871613 C10.1943504,18.8571811 6.03398936,23.8699314 6.03398936,23.8699314 C5.43660614,24.5842445 4.61953514,24.9602388 3.67072763,24.9602388 C2.80949063,24.9602388 2.06057234,24.6318146 1.50659363,24.0073139 C0.973555704,23.4090719 0.702848584,22.7175925 0.702848584,21.9534259 C0.702848584,21.2764077 0.951091962,20.6416319 1.42092682,20.1198827 C1.42092682,20.1198827 6.60928958,13.9319598 7.48689846,12.8846558 C6.59900956,11.8209876 0.849814756,4.939302 0.849814756,4.939302 C0.450036309,4.46398123 0.245578189,3.84709176 0.245578189,3.10918386 C0.245578189,2.29592488 0.53608386,1.5637254 1.08511293,0.992122684 C1.64404127,0.409483701 2.37811065,0.101990364 3.20736537,0.101990364 C4.13903952,0.101990364 4.95420681,0.518704725 5.56301227,1.30874949 C5.56301227,1.30874949 10.1425696,6.8128041 11.3045923,8.21022431 C12.4662342,6.81052073 17.0560715,1.28211021 17.0560715,1.28211021 C17.6949555,0.510712943 18.5112651,0.101990364 19.4147644,0.101990364 C20.1895731,0.101990364 20.9072706,0.411005945 21.4894241,0.996689416 C22.0689125,1.58161177 22.3754093,2.34273389 22.3754093,3.19899627 C22.3754093,3.87829776 22.1507719,4.4887177 21.7254838,4.96365791 C21.7254838,4.96365791 16.0505335,11.8004374 15.1725439,12.8587777 C16.0455839,13.9083651 21.4151796,20.3630612 21.4151796,20.3630612 C21.7445208,20.7242136 21.9185197,21.3019053 21.9185197,22.0961363 C21.9185197,22.9310872 21.583848,23.6571977 20.9510558,24.1953111 C20.3555763,24.7037407 19.6736685,24.9602388 18.9255117,24.9602388 C18.0718895,24.9602388 17.3206868,24.6196367 16.7526206,23.9753468" id="path84"></path>
                        </g>
                    </g>
                </g>
            </g>
        </g>
    </g>
</svg>