<?xml version="1.0" encoding="utf-8"?>
<!-- Generator: Adobe Illustrator 24.0.1, SVG Export Plug-In . SVG Version: 6.00 Build 0)  -->
<svg version="1.1" xmlns="http://www.w3.org/2000/svg" xmlns:xlink="http://www.w3.org/1999/xlink" x="0px" y="0px"
	 viewBox="0 0 245.7 62.99" style="enable-background:new 0 0 245.7 62.99;" xml:space="preserve">
<style type="text/css">
	.st0{fill:#FFFFFF;}
</style>
<g id="Layer_1">
	<g id="XMLID_1_">
		<g>
			<path class="st0" d="M201.23,0h44.35c0.08,0.39,0.12,0.79,0.12,1.21c0,1.6-0.63,3.07-1.81,4.24c-1.17,1.15-2.66,1.76-4.28,1.76
				h-26.68v15.73h10.43c1.6,0,3.07,0.61,4.23,1.78c1.16,1.16,1.78,2.62,1.78,4.23c0,1.65-0.6,3.15-1.74,4.31
				c-1.15,1.17-2.63,1.79-4.27,1.79h-10.43v15.93h26.78c1.59,0,3.04,0.6,4.2,1.74c1.17,1.15,1.79,2.63,1.79,4.26
				c0,1.65-0.63,3.13-1.82,4.28c-1.18,1.13-2.65,1.73-4.27,1.73h-38.69V0H201.23z"/>
			<path class="st0" d="M192.43,52.71c1.19,1.15,1.82,2.63,1.82,4.27c0,1.65-0.63,3.13-1.82,4.28c-1.18,1.13-2.65,1.73-4.27,1.73
				h-38.68V1.09c0-0.37,0.04-0.74,0.11-1.09h11.79c0.07,0.35,0.11,0.72,0.11,1.09v49.89h26.67
				C189.78,50.98,191.26,51.58,192.43,52.71z"/>
			<path class="st0" d="M138.63,9.11l1.03,30.33c0,1.64-0.62,3.11-1.79,4.25c-1.16,1.13-2.62,1.73-4.22,1.73
				c-1.67,0-3.12-0.57-4.3-1.71c-0.41-0.4-0.66-0.88-0.93-1.35c-2.02,1.18-5.24,3.06-5.24,3.06h-14.21c-3.93,0-7.31-1.39-10.05-4.13
				c-2.74-2.74-4.14-6.12-4.14-10.04v-4.72c0-3.89,1.41-7.26,4.18-10.02c2.76-2.75,6.14-4.15,10.04-4.15h15.9
				c0.49,0,1.07,0.05,1.74,0.15c-0.06-1.63-0.12-3.33-0.12-3.33c0-0.59-0.18-1.05-0.6-1.46c-0.43-0.42-0.89-0.61-1.51-0.61h-15.4
				c-1.61,0-3.07-0.61-4.23-1.78C103.62,4.17,103,2.71,103,1.11c0-0.38,0.04-0.75,0.11-1.11h0.38h31.59h0.03
				C137.34,2.55,138.53,5.6,138.63,9.11z M127.46,29.41c-0.08-1.04-0.16-2.3-0.16-2.3c-0.02-0.66-0.22-1.16-0.64-1.58
				c-0.4-0.41-0.85-0.59-1.45-0.59h-15.92c-0.61,0-1.06,0.19-1.49,0.61c-0.41,0.41-0.6,0.86-0.6,1.46v4.5
				c0,0.56,0.19,1.01,0.63,1.44c0.44,0.44,0.89,0.63,1.46,0.63h10.88C120.87,33.18,125.91,30.29,127.46,29.41z"/>
			<path class="st0" d="M91.9,0c0.07,0.36,0.11,0.73,0.11,1.11c0,1.62-0.6,3.1-1.74,4.28c-1.15,1.19-2.63,1.82-4.28,1.82H70.43
				c-0.22,0-0.73-0.01-1.36,1.19l-8.91,16.77c-0.54,1.03-0.82,2.29-0.82,3.72c0.03,1.57,0.35,2.95,0.98,4.13l8.56,16.54
				c0.47,1.02,1.1,1.43,2.18,1.42H85.7c1.64,0,3.08,0.58,4.27,1.73c1.2,1.15,1.83,2.63,1.83,4.27c0,1.65-0.63,3.13-1.83,4.28
				c-1.17,1.13-2.65,1.73-4.26,1.73H70.56c-2.27,0-4.62-0.71-6.97-2.11c-2.36-1.4-4.05-3.04-5.03-4.88L49.2,37.9
				c-1.38-2.85-2.07-5.82-2.07-8.83c0-3.33,0.68-6.28,2-8.76l9.45-17.86c0.47-0.86,1.04-1.68,1.74-2.45h0.63H91.9z"/>
			<path class="st0" d="M42.49,44.76c1.72,2.2,2.6,4.61,2.6,7.16c0,2.92-1.07,5.52-3.18,7.72c-2.13,2.22-4.58,3.35-7.28,3.35h-21.9
				c-3.43,0-6.45-1.31-8.96-3.9C1.27,56.53,0,53.63,0,50.48C0,46.36,2.26,44,6.2,44c1.61,0,3.06,0.6,4.2,1.76
				c1.12,1.14,1.72,2.57,1.72,4.13c0,0.4,0.11,0.6,0.3,0.77c0.16,0.16,0.39,0.32,0.89,0.32c0,0,16.05,0,18.73,0
				C30.75,49.34,2.55,13.54,2.55,13.54C0.86,11.37,0,8.96,0,6.37c0-1.83,0.4-3.52,1.21-5.06L1.59,1.5c0.47-0.75,0.88-1.35,3.02-1.49
				L4.63,0h37.4h0.02c2.01,2.33,3.04,5.08,3.04,8.2c0,1.68-0.63,3.17-1.82,4.34c-1.2,1.17-2.58,1.76-4.1,1.76
				c-1.99,0-3.46-0.55-4.36-1.64c-0.71-0.86-1.3-2.2-1.85-4.22c-0.29-1.04-0.7-1.12-1.25-1.12h-18.7
				C14.34,9,42.49,44.76,42.49,44.76z"/>
		</g>
	</g>
</g>
<g id="Layer_2">
</g>
</svg>
