<?xml version="1.0" encoding="UTF-8"?>
<svg width="100px" height="100px" viewBox="0 0 100 100" version="1.1" xmlns="http://www.w3.org/2000/svg" xmlns:xlink="http://www.w3.org/1999/xlink">
    <!-- Generator: Sketch 47.1 (45422) - http://www.bohemiancoding.com/sketch -->
    <title>SCaLE_placeholders_speakers_robot-04</title>
    <desc>Created with Sketch.</desc>
    <defs></defs>
    <g id="Page-1" stroke="none" stroke-width="1" fill="none" fill-rule="evenodd">
        <g id="SCaLE_placeholders_speakers_robot-04">
            <rect id="Rectangle" fill="#FFFFFF" x="0" y="0" width="100" height="100"></rect>
            <g transform="translate(10.000000, 8.000000)">
                <g id="Group">
                    <g transform="translate(52.000000, 0.000000)" id="Shape">
                        <path d="M0.63,17.06 L11.48,3.5" stroke="#CFCECE" stroke-width="2"></path>
                        <path d="M13.74,5.49 C14.78,4.19 14.57,2.3 13.27,1.26 C11.97,0.22 10.08,0.43 9.04,1.73 C8,3.03 8.21,4.92 9.51,5.96 C10.81,7 12.7,6.79 13.74,5.49 Z" fill="#CFCECE" fill-rule="nonzero"></path>
                    </g>
                    <g transform="translate(13.000000, 0.000000)" id="Shape">
                        <path d="M14.37,17.06 L3.52,3.5" stroke="#CFCECE" stroke-width="2"></path>
                        <path d="M5.96,1.74 C4.92,0.44 3.03,0.23 1.73,1.27 C0.43,2.31 0.22,4.2 1.26,5.5 C2.3,6.8 4.19,7.01 5.49,5.97 C6.79,4.93 7,3.03 5.96,1.74 Z" fill="#CFCECE" fill-rule="nonzero"></path>
                    </g>
                    <g transform="translate(16.000000, 13.000000)" id="Shape">
                        <path d="M0.95,20.25 C-0.27,23.5 1.57,26.17 5.05,26.17 L42.95,26.17 C46.43,26.17 48.27,23.51 47.05,20.25 L42.01,6.81 C40.79,3.56 36.95,0.89 33.48,0.89 L14.52,0.89 C11.05,0.89 7.21,3.55 5.99,6.81 L0.95,20.25 Z" fill="#FFFFFF" fill-rule="nonzero"></path>
                        <path d="M0.95,20.25 C-0.27,23.5 1.57,26.17 5.05,26.17 L42.95,26.17 C46.43,26.17 48.27,23.51 47.05,20.25 L42.01,6.81 C40.79,3.56 36.95,0.89 33.48,0.89 L14.52,0.89 C11.05,0.89 7.21,3.55 5.99,6.81 L0.95,20.25 Z" stroke="#CFCECE" stroke-width="2"></path>
                    </g>
                    <g transform="translate(0.000000, 43.000000)" id="Shape">
                        <path d="M1.16,36.05 C-0.06,39.3 1.78,41.96 5.26,41.96 L74.75,41.96 C78.22,41.96 80.07,39.3 78.85,36.05 L67.88,6.82 C66.66,3.57 62.82,0.9 59.35,0.9 L20.65,0.9 C17.18,0.9 13.34,3.56 12.12,6.82 L1.16,36.05 Z" fill="#FFFFFF" fill-rule="nonzero"></path>
                        <path d="M1.16,36.05 C-0.06,39.3 1.78,41.96 5.26,41.96 L74.75,41.96 C78.22,41.96 80.07,39.3 78.85,36.05 L67.88,6.82 C66.66,3.57 62.82,0.9 59.35,0.9 L20.65,0.9 C17.18,0.9 13.34,3.56 12.12,6.82 L1.16,36.05 Z" stroke="#CFCECE" stroke-width="2"></path>
                    </g>
                    <g transform="translate(33.000000, 29.000000)" id="Shape" fill-rule="nonzero">
                        <path d="M13.32,2.59 C13.32,3.29 12.75,3.85 12.06,3.85 L1.95,3.85 C1.26,3.85 0.69,3.28 0.69,2.59 L0.69,1.96 C0.69,1.27 1.26,0.7 1.95,0.7 L12.06,0.7 C12.76,0.7 13.32,1.27 13.32,1.96 L13.32,2.59 Z" fill="#FFFFFF"></path>
                        <path d="M13.32,2.59 C13.32,3.29 12.75,3.85 12.06,3.85 L1.95,3.85 C1.26,3.85 0.69,3.28 0.69,2.59 L0.69,1.96 C0.69,1.27 1.26,0.7 1.95,0.7 L12.06,0.7 C12.76,0.7 13.32,1.27 13.32,1.96 L13.32,2.59 Z" fill="#CFCECE"></path>
                    </g>
                    <path d="M33.68,23.38 C33.68,25.12 32.27,26.54 30.52,26.54 C28.78,26.54 27.36,25.13 27.36,23.38 C27.36,21.64 28.77,20.22 30.52,20.22 C32.27,20.22 33.68,21.63 33.68,23.38 Z" id="Shape" stroke="#CFCECE" stroke-width="2" fill="#FFFFFF" fill-rule="nonzero"></path>
                    <path d="M52.63,23.38 C52.63,25.12 51.22,26.54 49.47,26.54 C47.72,26.54 46.31,25.13 46.31,23.38 C46.31,21.64 47.73,20.22 49.47,20.22 C51.22,20.22 52.63,21.63 52.63,23.38 Z" id="Shape" stroke="#CFCECE" stroke-width="2" fill="#FFFFFF" fill-rule="nonzero"></path>
                    <path d="M16.86,8.98 L21.29,5.18" id="Shape" stroke="#FFFFFF" stroke-width="2"></path>
                    <path d="M18.9,10.73 L23.33,6.93" id="Shape" stroke="#FFFFFF" stroke-width="2"></path>
                    <path d="M20.95,12.49 L25.38,8.69" id="Shape" stroke="#FFFFFF" stroke-width="2"></path>
                    <path d="M62.88,8.87 L58.45,5.07" id="Shape" stroke="#FFFFFF" stroke-width="2"></path>
                    <path d="M60.84,10.62 L56.41,6.82" id="Shape" stroke="#FFFFFF" stroke-width="2"></path>
                    <path d="M58.79,12.38 L54.36,8.58" id="Shape" stroke="#FFFFFF" stroke-width="2"></path>
                </g>
                <path d="M18.93,50.33 L17.16,55.05" id="Shape" stroke="#CFCECE" stroke-width="2" stroke-linecap="round" stroke-linejoin="round"></path>
                <path d="M22.93,50.33 L21.17,55.05" id="Shape" stroke="#CFCECE" stroke-width="2" stroke-linecap="round" stroke-linejoin="round"></path>
                <path d="M26.94,50.33 L25.17,55.05" id="Shape" stroke="#CFCECE" stroke-width="2" stroke-linecap="round" stroke-linejoin="round"></path>
            </g>
        </g>
    </g>
</svg>