<?xml version="1.0" encoding="UTF-8"?>
<svg width="100px" height="100px" viewBox="0 0 100 100" version="1.1" xmlns="http://www.w3.org/2000/svg" xmlns:xlink="http://www.w3.org/1999/xlink">
    <!-- Generator: Sketch 47.1 (45422) - http://www.bohemiancoding.com/sketch -->
    <title>SCaLE_placeholders_speakers_robot-01</title>
    <desc>Created with Sketch.</desc>
    <defs></defs>
    <g id="Page-1" stroke="none" stroke-width="1" fill="none" fill-rule="evenodd">
        <g id="SCaLE_placeholders_speakers_robot-01">
            <rect id="Rectangle" fill="#FFFFFF" x="0" y="0" width="100" height="100"></rect>
            <g transform="translate(11.000000, 12.000000)">
                <g id="Group" transform="translate(53.000000, 0.000000)">
                    <path d="M0.67,14.33 L12.48,2.52" id="Shape" stroke="#CFCECE" stroke-width="2" stroke-linecap="round" stroke-linejoin="round"></path>
                    <path d="M14,4.19 C14.88,3.31 14.88,1.88 14,1 C13.12,0.12 11.69,0.12 10.81,1 C9.93,1.88 9.93,3.31 10.81,4.19 C11.69,5.07 13.12,5.07 14,4.19 Z" id="Shape" fill="#CFCECE" fill-rule="nonzero"></path>
                </g>
                <g id="Group" transform="translate(9.000000, 0.000000)">
                    <path d="M14.67,14.33 L2.85,2.52" id="Shape" stroke="#CFCECE" stroke-width="2" stroke-linecap="round" stroke-linejoin="round"></path>
                    <path d="M4.52,1 C3.64,0.12 2.21,0.12 1.33,1 C0.45,1.88 0.45,3.31 1.33,4.19 C2.21,5.07 3.64,5.07 4.52,4.19 C5.4,3.31 5.4,1.88 4.52,1 Z" id="Shape" fill="#CFCECE" fill-rule="nonzero"></path>
                </g>
                <path d="M18.99,17.67 C16.78,15.46 16.78,11.87 18.99,9.66 C21.2,7.45 24.79,7.45 27,9.66" id="Shape" stroke="#CFCECE" stroke-width="2" fill="#FFFFFF" fill-rule="nonzero" stroke-linecap="round" stroke-linejoin="round"></path>
                <path d="M49.99,9.66 C52.2,7.45 55.79,7.45 58,9.66 C60.21,11.87 60.21,15.46 58,17.67" id="Shape" stroke="#CFCECE" stroke-width="2" fill="#FFFFFF" fill-rule="nonzero" stroke-linecap="round" stroke-linejoin="round"></path>
                <path d="M0.38,70.08 C-0.84,73.34 1,76 4.48,76 L73.97,76 C77.44,76 79.29,73.34 78.07,70.08 L67.1,40.85 C65.88,37.6 62.04,34.93 58.57,34.93 L19.87,34.93 C16.4,34.93 12.56,37.59 11.34,40.85 L0.38,70.08 Z" id="Shape" stroke="#CFCECE" stroke-width="2" fill="#FFFFFF" fill-rule="nonzero" stroke-linecap="round" stroke-linejoin="round"></path>
                <path d="M61.75,31.25 C61.75,18.41 51.34,8 38.5,8 C25.66,8 15.25,18.41 15.25,31.25 L61.75,31.25 Z" id="Shape" stroke="#CFCECE" stroke-width="2" fill="#FFFFFF" fill-rule="nonzero" stroke-linecap="round" stroke-linejoin="round"></path>
                <circle id="Oval" stroke="#FFFFFF" stroke-width="2" fill="#CFCECE" fill-rule="nonzero" stroke-linecap="round" stroke-linejoin="round" cx="26" cy="18.33" r="2.67"></circle>
                <circle id="Oval" stroke="#FFFFFF" stroke-width="2" fill="#CFCECE" fill-rule="nonzero" stroke-linecap="round" stroke-linejoin="round" cx="51" cy="18.33" r="2.67"></circle>
                <path d="M42,20.67 C42,22.51 40.51,24 38.67,24 C36.83,24 35.34,22.51 35.34,20.67 L42,20.67 Z" id="Shape" stroke="#CFCECE" stroke-width="2" fill="#FFFFFF" fill-rule="nonzero" stroke-linecap="round" stroke-linejoin="round"></path>
                <path d="M11.5,41.75 L67,41.75" id="Shape" stroke="#CFCECE" stroke-width="2" stroke-linecap="round" stroke-linejoin="round"></path>
                <g id="Group" transform="translate(15.000000, 45.000000)" stroke="#CFCECE" stroke-width="2" stroke-linecap="round" stroke-linejoin="round">
                    <path d="M0.75,0.5 L1.25,0.5" id="Shape"></path>
                    <path d="M2.05,0.5 L4.85,0.5" id="Shape" stroke-dasharray="0.8,0.8"></path>
                    <path d="M5.25,0.5 L5.75,0.5" id="Shape"></path>
                </g>
                <g id="Group" transform="translate(25.000000, 45.000000)" stroke="#CFCECE" stroke-width="2" stroke-linecap="round" stroke-linejoin="round">
                    <path d="M0.75,0.5 L1.25,0.5" id="Shape"></path>
                    <path d="M2.05,0.5 L4.85,0.5" id="Shape" stroke-dasharray="0.8,0.8"></path>
                    <path d="M5.25,0.5 L5.75,0.5" id="Shape"></path>
                </g>
                <g id="Group" transform="translate(35.000000, 45.000000)" stroke="#CFCECE" stroke-width="2" stroke-linecap="round" stroke-linejoin="round">
                    <path d="M0.75,0.5 L1.25,0.5" id="Shape"></path>
                    <path d="M2.05,0.5 L4.85,0.5" id="Shape" stroke-dasharray="0.8,0.8"></path>
                    <path d="M5.25,0.5 L5.75,0.5" id="Shape"></path>
                </g>
                <g id="Group" transform="translate(45.000000, 45.000000)" stroke="#CFCECE" stroke-width="2" stroke-linecap="round" stroke-linejoin="round">
                    <path d="M0.75,0.5 L1.25,0.5" id="Shape"></path>
                    <path d="M2.05,0.5 L4.85,0.5" id="Shape" stroke-dasharray="0.8,0.8"></path>
                    <path d="M5.25,0.5 L5.75,0.5" id="Shape"></path>
                </g>
                <g id="Group" transform="translate(55.000000, 45.000000)" stroke="#CFCECE" stroke-width="2" stroke-linecap="round" stroke-linejoin="round">
                    <path d="M0.75,0.5 L1.25,0.5" id="Shape"></path>
                    <path d="M2.05,0.5 L4.85,0.5" id="Shape" stroke-dasharray="0.8,0.8"></path>
                    <path d="M5.25,0.5 L5.75,0.5" id="Shape"></path>
                </g>
            </g>
        </g>
    </g>
</svg>