<?xml version="1.0" encoding="utf-8"?>
<!-- Generator: Adobe Illustrator 24.0.1, SVG Export Plug-In . SVG Version: 6.00 Build 0)  -->
<svg version="1.1" xmlns="http://www.w3.org/2000/svg" xmlns:xlink="http://www.w3.org/1999/xlink" x="0px" y="0px"
	 viewBox="0 0 61.36 60.72" style="enable-background:new 0 0 61.36 60.72;" xml:space="preserve">
<style type="text/css">
	.st0{fill:#FFFFFF;}
</style>
<g id="Layer_1">
	<g>
		<path class="st0" d="M58.87,7.57H2.49C1.11,7.57,0,5.88,0,3.79S1.11,0,2.49,0h56.38c1.37,0,2.49,1.7,2.49,3.79
			S60.24,7.57,58.87,7.57z"/>
	</g>
	<g>
		<path class="st0" d="M58.87,34.15H2.49c-1.37,0-2.49-1.7-2.49-3.79s1.11-3.79,2.49-3.79h56.38c1.37,0,2.49,1.7,2.49,3.79
			S60.24,34.15,58.87,34.15z"/>
	</g>
	<g>
		<path class="st0" d="M58.87,60.72H2.49c-1.37,0-2.49-1.7-2.49-3.79c0-2.09,1.11-3.79,2.49-3.79h56.38c1.37,0,2.49,1.7,2.49,3.79
			C61.36,59.02,60.24,60.72,58.87,60.72z"/>
	</g>
</g>
<g id="Layer_2">
</g>
</svg>
