<?xml version="1.0" encoding="UTF-8"?>
<svg width="100px" height="100px" viewBox="0 0 100 100" version="1.1" xmlns="http://www.w3.org/2000/svg" xmlns:xlink="http://www.w3.org/1999/xlink">
    <!-- Generator: Sketch 47.1 (45422) - http://www.bohemiancoding.com/sketch -->
    <title>SCaLE_placeholders_speakers_penguin</title>
    <desc>Created with Sketch.</desc>
    <defs></defs>
    <g id="Page-1" stroke="none" stroke-width="1" fill="none" fill-rule="evenodd">
        <g id="SCaLE_placeholders_speakers_penguin">
            <rect id="Rectangle" fill="#FFFFFF" x="0" y="0" width="100" height="100"></rect>
            <g transform="translate(10.000000, 10.000000)" id="Shape">
                <path d="M80.5,53.51 C80.5,53.98 80.5,54.45 80.5,54.92 C80.27,54.88 80.1,55 79.92,55.1 C78.68,55.85 77.32,56.2 75.89,56.16 C73.98,56.11 72.18,55.57 70.5,54.68 C69.92,54.37 69.73,54.45 69.57,55.1 C68.73,58.32 67.57,61.42 65.86,64.3 C64.5,66.59 62.77,68.57 60.88,70.42 C58.78,72.16 56.52,73.65 53.98,74.67 C47.09,77.43 39.97,77.7 32.74,76.45 C27.89,75.62 23.54,73.62 19.78,70.41 C19.6,70.22 19.43,70.02 19.24,69.84 C16.87,67.61 15.05,64.99 13.61,62.08 C12.48,59.8 11.72,57.38 11.04,54.94 C10.9,54.44 10.74,54.35 10.3,54.61 C9.53,55.06 8.69,55.36 7.84,55.62 C5.34,56.4 2.91,56.44 0.6,55.01 C0.48,54.93 0.31,54.94 0.16,54.9 C0.16,54.43 0.16,53.96 0.16,53.49 C0.36,53.51 0.44,53.38 0.5,53.23 C1.29,51.53 2.45,50.08 3.56,48.6 C5.87,45.52 8.11,42.38 9.46,38.75 C10.51,35.91 11.33,33 12.24,30.11 C12.51,29.24 12.86,28.37 12.86,27.45 C12.87,25.67 13.04,23.91 13.34,22.16 C14.4,15.98 17.27,10.79 22.06,6.75 C26.25,3.22 31.14,1.15 36.58,0.44 C36.79,0.41 37.02,0.43 37.03,0.13 C39.23,0.13 41.42,0.13 43.62,0.13 C43.63,0.43 43.87,0.41 44.07,0.44 C50.88,1.4 56.71,4.26 61.32,9.44 C65.17,13.77 67.11,18.9 67.66,24.63 C67.78,25.93 67.6,27.25 67.97,28.52 C68.47,30.22 69.06,31.9 69.51,33.61 C70.76,38.3 72.71,42.64 75.6,46.57 C77.22,48.77 79.03,50.85 80.23,53.35 C80.27,53.46 80.41,53.47 80.5,53.51 Z M18.67,46.34 C18.68,48.67 18.9,50.98 19.48,53.25 C20.98,59.19 24.38,63.6 30.12,65.93 C37.21,68.8 44.35,68.71 51.34,65.59 C55.62,63.68 58.58,60.39 60.31,56 C61.91,51.92 62.24,47.68 61.87,43.37 C61.6,40.17 60.85,37.09 59.11,34.33 C58.95,34.08 58.98,33.84 59.02,33.58 C59.14,32.94 59.29,32.3 59.39,31.66 C60.09,27.5 60.28,23.35 59,19.26 C57.94,15.88 55.86,13.44 52.41,12.4 C49.76,11.6 47.08,11.26 44.58,12.93 C43.89,13.39 43.21,13.89 42.55,14.4 C40.33,16.11 40.33,16.12 38.21,14.34 C38.17,14.31 38.13,14.28 38.09,14.24 C35.22,11.47 31.84,11.27 28.25,12.4 C24.03,13.72 22.04,16.92 21.19,21 C20.44,24.58 20.59,28.18 21.31,31.74 C21.6,33.19 21.52,34.4 20.8,35.79 C19.1,39.06 18.66,42.67 18.67,46.34 Z" fill="#CFCECE"></path>
                <path d="M60.88,70.43 C61.79,70.44 62.7,70.44 63.62,70.46 C65.16,70.49 66.24,71.53 66.23,72.97 C66.23,74.41 65.15,75.45 63.61,75.48 C62.81,75.49 62.01,75.48 61.21,75.48 C61.19,75.68 61.34,75.66 61.41,75.7 C62.39,76.19 62.94,76.98 62.91,78.07 C62.88,79.15 62.29,79.92 61.28,80.34 C61.19,80.38 61.08,80.38 61.05,80.51 C59.17,80.51 57.28,80.51 55.4,80.51 C55.35,80.4 55.26,80.37 55.15,80.37 C53.55,80.36 51.97,80.21 50.38,80.04 C47.5,79.74 44.59,79.39 41.94,78.18 C40.77,77.64 39.91,77.66 38.73,78.18 C35.49,79.6 31.98,79.9 28.49,80.22 C27.36,80.32 26.22,80.23 25.11,80.52 C23.28,80.52 21.45,80.52 19.62,80.52 C19.58,80.36 19.42,80.38 19.31,80.33 C18.35,79.89 17.78,79.13 17.76,78.08 C17.73,77.03 18.24,76.24 19.19,75.75 C19.28,75.7 19.46,75.71 19.47,75.5 C18.66,75.5 17.86,75.51 17.06,75.5 C15.52,75.47 14.44,74.43 14.44,72.99 C14.44,71.55 15.51,70.51 17.05,70.48 C17.96,70.46 18.88,70.46 19.79,70.45 C23.55,73.66 27.9,75.65 32.75,76.49 C39.97,77.73 47.09,77.47 53.99,74.71 C56.53,73.67 58.78,72.18 60.88,70.43 Z" fill="#CFCECE"></path>
                <path d="M18.67,46.34 C18.66,42.67 19.1,39.06 20.8,35.78 C21.52,34.39 21.6,33.18 21.31,31.73 C20.59,28.17 20.45,24.57 21.19,20.99 C22.04,16.91 24.03,13.7 28.25,12.39 C31.84,11.27 35.21,11.46 38.09,14.23 C38.13,14.27 38.17,14.3 38.21,14.33 C40.33,16.11 40.32,16.11 42.55,14.39 C43.21,13.88 43.88,13.38 44.58,12.92 C47.08,11.25 49.76,11.59 52.41,12.39 C55.87,13.43 57.95,15.87 59,19.25 C60.28,23.35 60.09,27.49 59.39,31.65 C59.28,32.29 59.14,32.93 59.02,33.57 C58.97,33.83 58.95,34.07 59.11,34.32 C60.84,37.08 61.59,40.16 61.87,43.36 C62.24,47.67 61.91,51.91 60.31,55.99 C58.59,60.38 55.62,63.66 51.34,65.58 C44.35,68.7 37.2,68.79 30.12,65.92 C24.39,63.6 20.98,59.19 19.48,53.24 C18.91,50.98 18.68,48.67 18.67,46.34 Z M40.33,40.32 C40.4,40.3 40.5,40.26 40.59,40.23 C43.52,39.17 45.56,37.17 46.85,34.36 C47.08,33.85 46.68,33.85 46.42,33.77 C44.42,33.14 42.56,32.2 40.8,31.08 C40.43,30.84 40.2,30.86 39.84,31.09 C38.08,32.21 36.23,33.17 34.21,33.76 C33.66,33.92 33.68,34.16 33.89,34.59 C35.14,37.19 37.09,39.06 39.76,40.15 C39.95,40.2 40.13,40.25 40.33,40.32 Z M33.63,30.29 C35.44,30.29 36.97,28.76 36.98,26.95 C36.98,25.13 35.46,23.61 33.64,23.6 C31.83,23.6 30.29,25.13 30.29,26.94 C30.29,28.75 31.82,30.28 33.63,30.29 Z M50.38,26.92 C50.36,25.11 48.8,23.58 47.01,23.61 C45.18,23.63 43.68,25.17 43.7,26.98 C43.73,28.81 45.26,30.31 47.07,30.29 C48.87,30.27 50.39,28.72 50.38,26.92 Z" fill="#FEFEFE"></path>
                <path d="M40.33,40.32 C40.12,40.25 39.95,40.21 39.78,40.14 C37.1,39.05 35.16,37.18 33.91,34.58 C33.7,34.15 33.68,33.91 34.23,33.75 C36.24,33.16 38.09,32.2 39.86,31.08 C40.22,30.85 40.45,30.84 40.82,31.07 C42.58,32.19 44.44,33.13 46.44,33.76 C46.7,33.84 47.1,33.84 46.87,34.35 C45.58,37.16 43.54,39.16 40.61,40.22 C40.5,40.26 40.4,40.29 40.33,40.32 Z" fill="#CFCECE"></path>
                <path d="M33.63,30.29 C31.82,30.29 30.29,28.75 30.29,26.94 C30.29,25.13 31.83,23.6 33.64,23.6 C35.46,23.6 36.98,25.13 36.98,26.95 C36.97,28.76 35.44,30.29 33.63,30.29 Z" fill="#CFCECE"></path>
                <path d="M50.38,26.92 C50.39,28.72 48.87,30.27 47.06,30.29 C45.25,30.31 43.72,28.8 43.69,26.98 C43.66,25.17 45.17,23.64 47,23.61 C48.8,23.58 50.36,25.11 50.38,26.92 Z" fill="#CFCECE"></path>
            </g>
        </g>
    </g>
</svg>