<?xml version="1.0" encoding="UTF-8"?>
<svg width="100px" height="100px" viewBox="0 0 100 100" version="1.1" xmlns="http://www.w3.org/2000/svg" xmlns:xlink="http://www.w3.org/1999/xlink">
    <!-- Generator: Sketch 47.1 (45422) - http://www.bohemiancoding.com/sketch -->
    <title>SCaLE_placeholders_speakers_robot-03</title>
    <desc>Created with Sketch.</desc>
    <defs></defs>
    <g id="Page-1" stroke="none" stroke-width="1" fill="none" fill-rule="evenodd">
        <g id="SCaLE_placeholders_speakers_robot-03">
            <rect id="Rectangle" fill="#FFFFFF" x="0" y="0" width="100" height="100"></rect>
            <g transform="translate(10.000000, 3.000000)">
                <path d="M23,30 L23,50 L59,50 L59,30 C59,20.06 50.94,12 41,12 C31.06,12 23,20.06 23,30 Z" id="Shape" stroke="#CFCECE" stroke-width="2" fill="#FFFFFF" fill-rule="nonzero" stroke-linecap="round" stroke-linejoin="round"></path>
                <g id="Group" transform="translate(0.000000, 53.000000)">
                    <path d="M1.16,36.05 C-0.06,39.3 1.78,41.96 5.26,41.96 L74.75,41.96 C78.22,41.96 80.07,39.3 78.85,36.05 L67.88,6.82 C66.66,3.57 62.82,0.9 59.35,0.9 L20.65,0.9 C17.18,0.9 13.34,3.56 12.12,6.82 L1.16,36.05 Z" id="Shape" fill="#FFFFFF" fill-rule="nonzero"></path>
                    <path d="M1.16,36.05 C-0.06,39.3 1.78,41.96 5.26,41.96 L74.75,41.96 C78.22,41.96 80.07,39.3 78.85,36.05 L67.88,6.82 C66.66,3.57 62.82,0.9 59.35,0.9 L20.65,0.9 C17.18,0.9 13.34,3.56 12.12,6.82 L1.16,36.05 Z" id="Shape" stroke="#CFCECE" stroke-width="2"></path>
                </g>
                <g id="Group" transform="translate(33.000000, 39.000000)">
                    <path d="M13.32,2.59 C13.32,3.29 12.75,3.85 12.06,3.85 L1.95,3.85 C1.26,3.85 0.69,3.28 0.69,2.59 L0.69,1.96 C0.69,1.27 1.26,0.7 1.95,0.7 L12.06,0.7 C12.76,0.7 13.32,1.27 13.32,1.96 L13.32,2.59 Z" id="Shape" fill="#FFFFFF" fill-rule="nonzero"></path>
                    <path d="M13.32,1.96 L13.32,2.59 C13.32,3.29 12.75,3.85 12.06,3.85 L1.95,3.85 C1.26,3.85 0.69,3.28 0.69,2.59 L0.69,1.96" id="Shape" stroke="#CFCECE" stroke-width="2"></path>
                </g>
                <path d="M33.68,33.38 C33.68,35.12 32.27,36.54 30.52,36.54 C28.78,36.54 27.36,35.13 27.36,33.38 C27.36,31.64 28.77,30.22 30.52,30.22 C32.27,30.22 33.68,31.63 33.68,33.38 Z" id="Shape" fill="#CFCECE" fill-rule="nonzero"></path>
                <path d="M52.63,33.38 C52.63,35.12 51.22,36.54 49.47,36.54 C47.72,36.54 46.31,35.13 46.31,33.38 C46.31,31.64 47.72,30.22 49.47,30.22 C51.22,30.22 52.63,31.63 52.63,33.38 Z" id="Shape" fill="#CFCECE" fill-rule="nonzero"></path>
                <g id="Group" transform="translate(37.000000, 0.000000)">
                    <path d="M4,12 L4,2.86" id="Shape" stroke="#CFCECE" stroke-width="2"></path>
                    <circle id="Oval" fill="#CFCECE" fill-rule="nonzero" cx="4" cy="3.01" r="3.01"></circle>
                </g>
                <path d="M47.5,58.5 L47.5,63" id="Shape" stroke="#CFCECE" stroke-width="2"></path>
                <path d="M50.5,58.5 L50.5,63" id="Shape" stroke="#CFCECE" stroke-width="2"></path>
                <path d="M53.5,58.5 L53.5,63" id="Shape" stroke="#CFCECE" stroke-width="2"></path>
                <path d="M41,12 L41,19.75" id="Shape" stroke="#CFCECE" stroke-width="2" stroke-linecap="round"></path>
                <path d="M37,13 L37,19.75" id="Shape" stroke="#CFCECE" stroke-width="2" stroke-linecap="round"></path>
                <path d="M33,14 L33,19.75" id="Shape" stroke="#CFCECE" stroke-width="2" stroke-linecap="round"></path>
                <path d="M45,13 L45,19.75" id="Shape" stroke="#CFCECE" stroke-width="2" stroke-linecap="round"></path>
                <path d="M49,14 L49,19.75" id="Shape" stroke="#CFCECE" stroke-width="2" stroke-linecap="round"></path>
            </g>
        </g>
    </g>
</svg>