<?xml version="1.0" encoding="utf-8"?>
<!-- Generator: Adobe Illustrator 24.0.1, SVG Export Plug-In . SVG Version: 6.00 Build 0)  -->
<svg version="1.1" xmlns="http://www.w3.org/2000/svg" xmlns:xlink="http://www.w3.org/1999/xlink" x="0px" y="0px"
	 viewBox="0 0 60.34 61" style="enable-background:new 0 0 60.34 61;" xml:space="preserve">
<style type="text/css">
	.st0{fill:#FFFFFF;}
</style>
<g id="Layer_1">
	<path class="st0" d="M54.75,55.6v-2.4c0-9.69,0-19.7-0.02-29.55c-0.01-0.06-0.08-0.17-0.12-0.2C47.6,17.97,40.44,12.41,33.53,7.04
		l-0.99-0.77c-0.78-0.61-1.58-0.91-2.38-0.91c-0.79,0-1.58,0.3-2.34,0.9l-5.52,4.29c-5.41,4.21-11,8.55-16.51,12.82
		c-0.19,0.14-0.2,0.2-0.2,0.38C5.6,32.77,5.6,41.95,5.6,50.82v4.77h13.56v-5.63c0-4.78,0-9.55,0-14.33c0-2.67,1.74-4.33,4.54-4.33
		c2.02,0,4.04,0,6.06,0c2.27,0,4.53,0,6.8,0c2.91,0,4.64,1.66,4.64,4.44c0,4.78,0,9.57,0,14.35v5.5H54.75z M48.02,60.5
		c-2.49,0-4.97,0-7.46,0c-2.66,0-4.45-1.73-4.45-4.3c0-4.81,0-9.61,0-14.42l0-5.58H24.24v6.01c0,4.62,0,9.24,0,13.86
		c0,2.73-1.76,4.43-4.6,4.43c-2.46,0-4.92,0-7.38,0c-2.39,0-4.78,0-7.17,0c-2.82,0-4.58-1.68-4.58-4.39c0-3.08,0-6.15,0-9.22
		c0-7.67,0-15.6-0.01-23.41c0-1.53,0.61-2.74,1.87-3.72c4.99-3.87,10.06-7.81,14.96-11.62c2.41-1.88,4.82-3.75,7.24-5.63
		c1.7-1.32,3.64-2.02,5.6-2.02c1.97,0,3.91,0.7,5.61,2.02c2.83,2.2,5.67,4.4,8.5,6.61c4.52,3.52,9.2,7.15,13.81,10.73
		c1.16,0.9,1.76,2.08,1.75,3.49c0,5.84,0,11.67,0,17.51c0,5.13,0,10.26,0,15.39c0,2.5-1.83,4.24-4.44,4.24
		C52.94,60.5,50.47,60.5,48.02,60.5"/>
</g>
<g id="Layer_2">
</g>
</svg>
