<?xml version="1.0" encoding="UTF-8"?>
<svg width="100px" height="100px" viewBox="0 0 100 100" version="1.1" xmlns="http://www.w3.org/2000/svg" xmlns:xlink="http://www.w3.org/1999/xlink">
    <!-- Generator: Sketch 47.1 (45422) - http://www.bohemiancoding.com/sketch -->
    <title>SCaLE_placeholders_speakers_robot-02</title>
    <desc>Created with Sketch.</desc>
    <defs></defs>
    <g id="Page-1" stroke="none" stroke-width="1" fill="none" fill-rule="evenodd">
        <g id="SCaLE_placeholders_speakers_robot-02">
            <rect id="Rectangle" fill="#FFFFFF" x="0" y="0" width="100" height="100"></rect>
            <g transform="translate(25.000000, 20.000000)">
                <g id="Group" transform="translate(6.000000, 12.000000)">
                    <path d="M38.5,15.4 C38.5,17.38 36.88,19 34.9,19 L4.1,19 C2.12,19 0.5,17.38 0.5,15.4 L0.5,3.6 C0.5,1.62 2.12,0 4.1,0 L34.9,0 C36.88,0 38.5,1.62 38.5,3.6 L38.5,15.4 L38.5,15.4 Z" id="Shape" fill="#FFFFFF" fill-rule="nonzero"></path>
                    <path d="M38.5,15.4 C38.5,17.38 36.88,19 34.9,19 L4.1,19 C2.12,19 0.5,17.38 0.5,15.4 L0.5,3.6 C0.5,1.62 2.12,0 4.1,0 L34.9,0 C36.88,0 38.5,1.62 38.5,3.6 L38.5,15.4 L38.5,15.4 Z" id="Shape" stroke="#CFCECE" stroke-width="2" stroke-linecap="round" stroke-linejoin="round"></path>
                </g>
                <g id="Group" transform="translate(6.000000, 35.000000)">
                    <path d="M38.5,21.4 C38.5,23.38 36.88,25 34.9,25 L4.1,25 C2.12,25 0.5,23.38 0.5,21.4 L0.5,4.27 C0.5,2.29 2.12,0.67 4.1,0.67 L34.9,0.67 C36.88,0.67 38.5,2.29 38.5,4.27 L38.5,21.4 L38.5,21.4 Z" id="Shape" fill="#FFFFFF" fill-rule="nonzero"></path>
                    <path d="M38.5,21.4 C38.5,23.38 36.88,25 34.9,25 L4.1,25 C2.12,25 0.5,23.38 0.5,21.4 L0.5,4.27 C0.5,2.29 2.12,0.67 4.1,0.67 L34.9,0.67 C36.88,0.67 38.5,2.29 38.5,4.27 L38.5,21.4 L38.5,21.4 Z" id="Shape" stroke="#CFCECE" stroke-width="2" stroke-linecap="round" stroke-linejoin="round"></path>
                </g>
                <path d="M4,16.67 L4,4 C4,2.02 5.62,0.4 7.6,0.4 L43.4,0.4 C45.38,0.4 47,2.02 47,4 L47,16.67" id="Shape" stroke="#CFCECE" stroke-width="2" stroke-linecap="round" stroke-linejoin="round"></path>
                <circle id="Oval" fill="#CFCECE" fill-rule="nonzero" cx="13" cy="18" r="2.67"></circle>
                <circle id="Oval" fill="#CFCECE" fill-rule="nonzero" cx="38" cy="18" r="2.67"></circle>
                <circle id="Oval" fill="#CFCECE" fill-rule="nonzero" cx="38" cy="42.25" r="1.42"></circle>
                <circle id="Oval" fill="#CFCECE" fill-rule="nonzero" cx="38" cy="46.25" r="1.42"></circle>
                <circle id="Oval" fill="#CFCECE" fill-rule="nonzero" cx="38" cy="50.25" r="1.42"></circle>
                <path d="M22.92,26.67 C16.99,26.67 16.67,24.46 16.67,24.46 L22.85,24.46 L28.07,24.46 L34.25,24.46 C34.25,24.46 33.93,26.67 28,26.67 L22.92,26.67 Z" id="Shape" fill="#CFCECE" fill-rule="nonzero"></path>
                <path d="M22.5,16 L22.5,12" id="Shape" stroke="#CFCECE" stroke-width="2" fill="#FFFFFF" fill-rule="nonzero" stroke-linecap="round" stroke-linejoin="round"></path>
                <path d="M25.5,16 L25.5,12" id="Shape" stroke="#CFCECE" stroke-width="2" fill="#FFFFFF" fill-rule="nonzero" stroke-linecap="round" stroke-linejoin="round"></path>
                <path d="M28.5,16 L28.5,12" id="Shape" stroke="#CFCECE" stroke-width="2" fill="#FFFFFF" fill-rule="nonzero" stroke-linecap="round" stroke-linejoin="round"></path>
                <path d="M6,27.33 C3.05,27.33 0.67,24.94 0.67,22 C0.67,19.06 3.06,16.67 6,16.67" id="Shape" stroke="#CFCECE" stroke-width="2"></path>
                <path d="M44.67,16.67 C47.62,16.67 50,19.06 50,22 C50,24.94 47.61,27.33 44.67,27.33" id="Shape" stroke="#CFCECE" stroke-width="2"></path>
            </g>
        </g>
    </g>
</svg>